# xmcd
#
# Track frame offsets: 
#        150
#        13200
#        23400
#        38700
#        59925
#        72300
#        85800
#        98175
#        112350
#        125375
#        152292
#        167067
#        180318
#
# Disc length: 2631 seconds
#
# Revision: 0
# Processed by: cddbd v1.5.2PL0 Copyright (c) Steve Scherf et al.
# Submitted via: ExactAudioCopyFreeDBPlugin 1.0
#
DISCID=a60a450d
DTITLE=Bryan Elijah Smith - Pour On Me
DYEAR=1900
DGENRE=
TTITLE0=Pour On Me
TTITLE1=Everything That's Wrong
TTITLE2=Walls
TTITLE3=I'm the Same
TTITLE4=Green Room
TTITLE5=Last Train Home
TTITLE6=Don't Mean a Thing
TTITLE7=Desalie
TTITLE8=Vampires
TTITLE9=Three Cheers
TTITLE10=It' Ain't Easy
TTITLE11=O New Day
TTITLE12=Wild Flower Child (Bonus)
EXTD=
EXTT0=
EXTT1=
EXTT2=
EXTT3=
EXTT4=
EXTT5=
EXTT6=
EXTT7=
EXTT8=
EXTT9=
EXTT10=
EXTT11=
EXTT12=
PLAYORDER=
